<svg width="38" height="35" viewBox="0 0 38 35" fill="#000000" xmlns="http://www.w3.org/2000/svg">
<path d="M12.35 6.65V2.9C12.35 2.1 12.6333 1.41667 13.2 0.85C13.7667 0.283333 14.45 0 15.25 0H22.75C23.55 0 24.2333 0.283333 24.8 0.85C25.3667 1.41667 25.65 2.1 25.65 2.9V6.65H35.1C35.9 6.65 36.5833 6.93333 37.15 7.5C37.7167 8.06667 38 8.75 38 9.55V32.1C38 32.9 37.7167 33.5833 37.15 34.15C36.5833 34.7167 35.9 35 35.1 35H2.9C2.1 35 1.41667 34.7167 0.85 34.15C0.283333 33.5833 0 32.9 0 32.1V9.55C0 8.75 0.283333 8.06667 0.85 7.5C1.41667 6.93333 2.1 6.65 2.9 6.65H12.35ZM14.65 6.65H23.35V2.9C23.35 2.73333 23.2917 2.58333 23.175 2.45C23.0583 2.31667 22.9167 2.25 22.75 2.25H15.25C15.0833 2.25 14.9417 2.31667 14.825 2.45C14.7083 2.58333 14.65 2.73333 14.65 2.9V6.65ZM35.75 23.1H22.95V25.85H15.15V23.1H2.25V32.1C2.25 32.2667 2.31667 32.4167 2.45 32.55C2.58333 32.6833 2.73333 32.75 2.9 32.75H35.1C35.2667 32.75 35.4167 32.6833 35.55 32.55C35.6833 32.4167 35.75 32.2667 35.75 32.1V23.1ZM17.4 23.6H20.65V20.35H17.4V23.6ZM2.25 20.85H15.15V18.05H22.95V20.85H35.75V9.55C35.75 9.38333 35.6833 9.24167 35.55 9.125C35.4167 9.00833 35.2667 8.95 35.1 8.95H2.9C2.73333 8.95 2.58333 9.00833 2.45 9.125C2.31667 9.24167 2.25 9.38333 2.25 9.55V20.85Z" />
</svg>
