<svg width="42" height="42" viewBox="0 0 42 42" fill="none" xmlns="http://www.w3.org/2000/svg">
<path d="M18.0502 30.3L32.3002 16L29.7502 13.5L18.0502 25.25L12.1502 19.35L9.6502 21.85L18.0502 30.3ZM21.0002 41.3C18.1335 41.3 15.4585 40.7833 12.9752 39.75C10.4919 38.7167 8.34186 37.2917 6.5252 35.475C4.70853 33.6583 3.28353 31.5083 2.2502 29.025C1.21686 26.5417 0.700195 23.8667 0.700195 21C0.700195 18.1667 1.21686 15.5083 2.2502 13.025C3.28353 10.5417 4.70853 8.39166 6.5252 6.575C8.34186 4.75833 10.4919 3.325 12.9752 2.275C15.4585 1.225 18.1335 0.699997 21.0002 0.699997C23.8335 0.699997 26.4919 1.225 28.9752 2.275C31.4585 3.325 33.6085 4.75833 35.4252 6.575C37.2419 8.39166 38.6752 10.5333 39.7252 13C40.7752 15.4667 41.3002 18.1333 41.3002 21C41.3002 23.8667 40.7752 26.5417 39.7252 29.025C38.6752 31.5083 37.2419 33.6583 35.4252 35.475C33.6085 37.2917 31.4585 38.7167 28.9752 39.75C26.4919 40.7833 23.8335 41.3 21.0002 41.3ZM21.0002 37.9C25.8002 37.9 29.8169 36.2833 33.0502 33.05C36.2835 29.8167 37.9002 25.8 37.9002 21C37.9002 16.2 36.2835 12.1833 33.0502 8.95C29.8169 5.71666 25.8002 4.1 21.0002 4.1C16.2002 4.1 12.1835 5.71666 8.9502 8.95C5.71686 12.1833 4.1002 16.2 4.1002 21C4.1002 25.8 5.71686 29.8167 8.9502 33.05C12.1835 36.2833 16.2002 37.9 21.0002 37.9Z" fill="black"/>
</svg>
