<svg width="42" height="42" viewBox="0 0 42 42" fill="none" xmlns="http://www.w3.org/2000/svg">
<path d="M13.6002 30.6L21.0002 23.2L28.4002 30.6L30.6002 28.4L23.2002 21L30.6002 13.6L28.4002 11.4L21.0002 18.8L13.6002 11.4L11.4002 13.6L18.8002 21L11.4002 28.4L13.6002 30.6ZM21.0002 41.3C18.1335 41.3 15.4585 40.7833 12.9752 39.75C10.4919 38.7167 8.34186 37.2917 6.5252 35.475C4.70853 33.6583 3.28353 31.5083 2.2502 29.025C1.21686 26.5417 0.700195 23.8667 0.700195 21C0.700195 18.1667 1.21686 15.5083 2.2502 13.025C3.28353 10.5417 4.70853 8.39166 6.5252 6.575C8.34186 4.75833 10.4919 3.325 12.9752 2.275C15.4585 1.225 18.1335 0.699997 21.0002 0.699997C23.8335 0.699997 26.4919 1.225 28.9752 2.275C31.4585 3.325 33.6085 4.75833 35.4252 6.575C37.2419 8.39166 38.6752 10.5417 39.7252 13.025C40.7752 15.5083 41.3002 18.1667 41.3002 21C41.3002 23.8667 40.7752 26.5417 39.7252 29.025C38.6752 31.5083 37.2419 33.6583 35.4252 35.475C33.6085 37.2917 31.4585 38.7167 28.9752 39.75C26.4919 40.7833 23.8335 41.3 21.0002 41.3ZM21.0002 37.9C25.6335 37.9 29.6085 36.25 32.9252 32.95C36.2419 29.65 37.9002 25.6667 37.9002 21C37.9002 16.3667 36.2419 12.3917 32.9252 9.075C29.6085 5.75833 25.6335 4.1 21.0002 4.1C16.3669 4.1 12.3919 5.75833 9.0752 9.075C5.75853 12.3917 4.1002 16.3667 4.1002 21C4.1002 25.6667 5.75853 29.65 9.0752 32.95C12.3919 36.25 16.3669 37.9 21.0002 37.9Z" fill="black"/>
</svg>
