<svg width="29" height="29" viewBox="0 0 29 29" fill="none" xmlns="http://www.w3.org/2000/svg">
<path d="M5.72368 17.6267H16.9803V15.8288H5.72368V17.6267ZM5.72368 12.624H23.2763V10.8652H5.72368V12.624ZM5.72368 7.66038H23.2763V5.90162H5.72368V7.66038ZM0 29V2.26685C0 1.66757 0.216228 1.13994 0.648684 0.683962C1.08114 0.227987 1.60263 0 2.21316 0H26.7868C27.3719 0 27.8871 0.227987 28.3322 0.683962C28.7774 1.13994 29 1.66757 29 2.26685V21.1833C29 21.7826 28.7774 22.3102 28.3322 22.7662C27.8871 23.2221 27.3719 23.4501 26.7868 23.4501H5.41842L0 29ZM1.71711 24.7008L4.65526 21.6914H26.7868C26.9395 21.6914 27.0603 21.6458 27.1493 21.5546C27.2384 21.4634 27.2829 21.3396 27.2829 21.1833V2.26685C27.2829 2.11051 27.2384 1.98675 27.1493 1.89555C27.0603 1.80436 26.9395 1.75876 26.7868 1.75876H2.21316C2.06053 1.75876 1.93969 1.80436 1.85066 1.89555C1.76162 1.98675 1.71711 2.11051 1.71711 2.26685V24.7008ZM1.71711 2.26685C1.71711 2.11051 1.71711 1.98675 1.71711 1.89555C1.71711 1.80436 1.71711 1.75876 1.71711 1.75876C1.71711 1.75876 1.71711 1.80436 1.71711 1.89555C1.71711 1.98675 1.71711 2.11051 1.71711 2.26685V21.1833C1.71711 21.3396 1.71711 21.4634 1.71711 21.5546C1.71711 21.6458 1.71711 21.6914 1.71711 21.6914V24.7008V2.26685Z" fill="black"/>
</svg>
