<svg width="34" height="34" viewBox="0 0 34 34" fill="#000000" xmlns="http://www.w3.org/2000/svg">
<path d="M2.9 34C2.1 34 1.41667 33.7167 0.85 33.15C0.283333 32.5833 0 31.9 0 31.1V2.9C0 2.1 0.283333 1.41667 0.85 0.85C1.41667 0.283333 2.1 0 2.9 0H31.1C31.9 0 32.5833 0.283333 33.15 0.85C33.7167 1.41667 34 2.1 34 2.9V31.1C34 31.9 33.7167 32.5833 33.15 33.15C32.5833 33.7167 31.9 34 31.1 34H2.9ZM2.9 31.75H15.85V2.25H2.9C2.73333 2.25 2.58333 2.31667 2.45 2.45C2.31667 2.58333 2.25 2.73333 2.25 2.9V31.1C2.25 31.2667 2.31667 31.4167 2.45 31.55C2.58333 31.6833 2.73333 31.75 2.9 31.75ZM18.15 31.75H31.1C31.2667 31.75 31.4167 31.6833 31.55 31.55C31.6833 31.4167 31.75 31.2667 31.75 31.1V16.95H18.15V31.75ZM18.15 14.7H31.75V2.9C31.75 2.73333 31.6833 2.58333 31.55 2.45C31.4167 2.31667 31.2667 2.25 31.1 2.25H18.15V14.7Z"/>
</svg>
