<svg width="16" height="13" viewBox="0 0 16 13" fill="none" xmlns="http://www.w3.org/2000/svg">
<path d="M8.86397 9.18566H12.1259V8.51821H8.86397V9.18566ZM8.86397 7.58754H12.1259V6.92009H8.86397V7.58754ZM7.95224 11C7.68886 11 7.4643 10.9138 7.27858 10.7415C7.09286 10.5691 7 10.3608 7 10.1163V3.89307C7 3.64865 7.09286 3.4387 7.27858 3.26322C7.4643 3.08774 7.68886 3 7.95224 3H11.6295L14 5.19976V10.1163C14 10.3608 13.9055 10.5691 13.7164 10.7415C13.5273 10.9138 13.301 11 13.0376 11H7.95224ZM11.123 5.6416V3.89307H7.95224V10.1163H13.0376V5.6416H11.123ZM7.95224 3.89307V5.6416V3.89307V5.6416V10.1163V3.89307Z" fill="#535353"/>
<path d="M1.2 13C0.88 13 0.6 12.8747 0.36 12.6242C0.12 12.3737 0 12.0927 0 11.7812V1.21875C0 0.907292 0.12 0.626302 0.36 0.375781C0.6 0.12526 0.88 0 1.2 0H6.8L8 1.21875H14.8C15.1067 1.21875 15.3833 1.34401 15.63 1.59453C15.8767 1.84505 16 2.12604 16 2.4375V11.7812C16 12.0927 15.8767 12.3737 15.63 12.6242C15.3833 12.8747 15.1067 13 14.8 13H1.2ZM1.2 1.21875V11.7812H14.8V2.4375H7.5L6.3 1.21875H1.2ZM1.2 1.21875V2.4375V11.7812V1.21875Z" fill="#535353"/>
</svg>
