<svg width="12" height="16" viewBox="0 0 12 16" fill="none" xmlns="http://www.w3.org/2000/svg">
<path d="M10.1833 15.0833H1.81667C1.38333 15.0833 1.01389 14.9305 0.708333 14.625C0.402778 14.3194 0.25 13.95 0.25 13.5167V2.48333C0.25 2.04999 0.402778 1.67777 0.708333 1.36666C1.01389 1.05555 1.38333 0.899994 1.81667 0.899994H7.86667L11.7667 4.79999V13.5167C11.7667 13.95 11.6111 14.3194 11.3 14.625C10.9889 14.9305 10.6167 15.0833 10.1833 15.0833ZM7.03333 5.58333V2.48333H1.81667V13.5167H10.1833V5.58333H7.03333ZM5.23333 11.7667L9.18333 7.79999L8.41667 7.03333L5.25 10.2L3.51667 8.46666L2.73333 9.24999L5.23333 11.7667ZM1.81667 2.48333V5.58333V2.48333V5.58333V13.5167V2.48333Z" fill="#535353"/>
</svg>
