<svg width="30" height="38" viewBox="0 0 30 38" fill="none" xmlns="http://www.w3.org/2000/svg">
<path d="M7.45 30.15H22.55V27.85H7.45V30.15ZM7.45 21.75H22.55V19.5H7.45V21.75ZM2.9 38C2.1 38 1.41667 37.7167 0.850002 37.15C0.283335 36.5833 0 35.9 0 35.1V2.9C0 2.1 0.283335 1.41667 0.850002 0.85C1.41667 0.283334 2.1 0 2.9 0H20.25L30 9.75V35.1C30 35.9 29.7167 36.5833 29.15 37.15C28.5833 37.7167 27.9 38 27.1 38H2.9ZM19.15 10.75V2.25H2.9C2.73333 2.25 2.58333 2.31667 2.45 2.45C2.31667 2.58333 2.25 2.73333 2.25 2.9V35.1C2.25 35.2667 2.31667 35.4167 2.45 35.55C2.58333 35.6833 2.73333 35.75 2.9 35.75H27.1C27.2667 35.75 27.4167 35.6833 27.55 35.55C27.6833 35.4167 27.75 35.2667 27.75 35.1V10.75H19.15ZM2.25 2.25V10.75V35.1V2.9C2.25 2.73333 2.25 2.58333 2.25 2.45C2.25 2.31667 2.25 2.25 2.25 2.25Z" fill="black"/>
</svg>
