<svg width="35" height="38" viewBox="0 0 35 38" fill="none" xmlns="http://www.w3.org/2000/svg">
<path fill-rule="evenodd" clip-rule="evenodd" d="M7.45 30.15H18.5L16.5 28L7.45 27.85V30.15ZM7.45 21.75H22.55V19.5H7.45V21.75ZM2.9 38C2.1 38 1.41667 37.7167 0.85 37.15C0.283334 36.5833 0 35.9 0 35.1V2.9C0 2.1 0.283334 1.41667 0.85 0.85C1.41667 0.283333 2.1 0 2.9 0H20.25L30 9.75V20.75L27.75 22.7231V10.75H19.15V2.25H2.9C2.73333 2.25 2.58333 2.31667 2.45 2.45C2.31667 2.58333 2.25 2.73333 2.25 2.9V10.75V35.1C2.25 35.2667 2.31667 35.4167 2.45 35.55C2.58333 35.6833 2.73333 35.75 2.9 35.75H27.1C27.2667 35.75 27.4167 35.6833 27.55 35.55C27.6833 35.4167 27.75 30.6667 27.75 30.5L30 28.5V35.1C30 35.9 29.7167 36.5833 29.15 37.15C28.5833 37.7167 27.9 38 27.1 38H2.9Z" fill="black"/>
<path d="M23.2851 33L16 25.3651L17.552 23.7386L23.2851 29.7469L33.448 19.1234L35 20.75L23.2851 33Z" fill="black"/>
</svg>
