<svg width="37" height="38" viewBox="0 0 37 38" fill="#000000" xmlns="http://www.w3.org/2000/svg">
<path fill-rule="evenodd" clip-rule="evenodd" d="M7.45 30.15H17.5L19.8192 27.85H7.45V30.15ZM7.45 21.75H22.55V19.5H7.45V21.75ZM2.9 38C2.1 38 1.41667 37.7167 0.85 37.15C0.283334 36.5833 0 35.9 0 35.1V2.9C0 2.1 0.283334 1.41667 0.85 0.85C1.41667 0.283333 2.1 0 2.9 0H20.25L30 9.75V18L27.75 20.1942V10.75H19.15V2.25H2.9C2.73333 2.25 2.58333 2.31667 2.45 2.45C2.31667 2.58333 2.25 2.73333 2.25 2.9V10.75V35.1C2.25 35.2667 2.31667 35.4167 2.45 35.55C2.58333 35.6833 2.73333 35.75 2.9 35.75H27.1C27.2667 35.75 27.4167 35.6833 27.55 35.55C27.6833 35.4167 27.75 35.2667 27.75 35.1V30.6893L30 28.5V35.1C30 35.9 29.7167 36.5833 29.15 37.15C28.5833 37.7167 27.9 38 27.1 38H2.9Z" />
<path d="M19.6016 33.3703H20.6866L33.0861 20.954L32.5436 20.4108L32.0269 19.8675L19.6016 32.3098V33.3703ZM18 35V31.6631L33.1894 16.453C33.4994 16.1426 33.8783 15.9917 34.326 16.0003C34.7738 16.009 35.1613 16.1685 35.4885 16.4789L36.5218 17.5136C36.849 17.824 37.0083 18.2034 36.9997 18.6518C36.9911 19.1001 36.8318 19.4795 36.5218 19.7899L21.3324 35H18ZM33.0861 20.954L32.5436 20.4108L32.0269 19.8675L33.0861 20.954Z"/>
</svg>
