<svg width="17" height="16" viewBox="0 0 17 16" fill="none" xmlns="http://www.w3.org/2000/svg">
<path fill-rule="evenodd" clip-rule="evenodd" d="M12.8702 11.088H8.91021L9.30621 11.484V12.672H12.8702V11.088ZM12.8702 7.92H6.53421V8.712L7.32621 9.504H12.8702V7.92ZM4.95021 0H11.2862L16.0382 4.752V14.256C16.0382 15.1272 15.3254 15.84 14.4542 15.84H4.94229C4.07109 15.84 3.36621 15.1272 3.36621 14.256V10.296L4.95021 11.88V14.256H14.4542V5.544H10.4942V1.584H4.95021V7.128L3.36621 5.544V1.584C3.36621 0.7128 4.07901 0 4.95021 0Z" fill="#535353"/>
<path d="M2.9799 7.98929L3.4353 7.53389L7.92 12.0186V12.474H7.4646L2.9799 7.98929ZM0 6.20729C0 6.33104 0.0495 6.45974 0.14355 6.55379L1.0494 7.45964L2.90565 5.60339L1.9998 4.69754C1.80675 4.50449 1.4949 4.50449 1.30185 4.69754L0.14355 5.85584C0.04455 5.95484 0 6.07859 0 6.20729ZM1.57905 7.98929L7.05375 13.464H8.91V11.6077L3.4353 6.13304L1.57905 7.98929Z" fill="#535353"/>
</svg>
