<svg width="16" height="16" viewBox="0 0 16 16" fill="none" xmlns="http://www.w3.org/2000/svg">
<path d="M15.3219 1.2625C16.0063 1.94594 16.0063 3.05406 15.3219 3.7375L14.3844 4.67812L11.3219 1.61625L12.2625 0.676875C12.9469 -0.00667161 14.0531 -0.00667161 14.7375 0.676875L15.3219 1.2625ZM5.3875 7.55312L10.6156 2.32312L13.6781 5.38437L8.44687 10.6125C8.25625 10.8062 8.02187 10.95 7.7625 11.0375L4.9875 11.9625C4.69063 12.05 4.42188 11.9812 4.21875 11.7531C4.01875 11.5781 3.95 11.2812 4.0375 11.0125L4.9625 8.2375C5.05 7.97812 5.19375 7.74375 5.3875 7.55312ZM6 1.97187C6.55312 1.97187 7 2.44781 7 2.97187C7 3.55312 6.55312 3.97187 6 3.97187H3C2.44781 3.97187 2 4.44687 2 4.97187V13C2 13.5531 2.44781 14 3 14H11C11.5531 14 12 13.5531 12 13V9.97187C12 9.44687 12.4469 8.97187 13 8.97187C13.5531 8.97187 14 9.44687 14 9.97187V13C14 14.6562 12.6562 16 11 16H3C1.34312 16 0 14.6562 0 13V4.97187C0 3.31563 1.34312 1.97187 3 1.97187H6Z" fill="#535353"/>
</svg>
