<svg width="39" height="30" viewBox="0 0 39 30" fill="#000000" xmlns="http://www.w3.org/2000/svg">
<path d="M2.8998 30C2.13314 30 1.46647 29.7083 0.899805 29.125C0.333138 28.5417 0.0498047 27.8667 0.0498047 27.1V3.65C0.0498047 2.88333 0.333138 2.20833 0.899805 1.625C1.46647 1.04167 2.13314 0.75 2.8998 0.75H16.5498L19.0498 3.25H35.1498C35.9165 3.25 36.5915 3.54167 37.1748 4.125C37.7581 4.70833 38.0498 5.38333 38.0498 6.15V27.1C38.0498 27.8667 37.7581 28.5417 37.1748 29.125C36.5915 29.7083 35.9165 30 35.1498 30H2.8998ZM2.2998 3.65V27.1C2.2998 27.3 2.35814 27.4583 2.4748 27.575C2.59147 27.6917 2.73314 27.75 2.8998 27.75H35.1498C35.3165 27.75 35.4581 27.6917 35.5748 27.575C35.6915 27.4583 35.7498 27.3 35.7498 27.1V6.15C35.7498 5.98333 35.6915 5.84167 35.5748 5.725C35.4581 5.60833 35.3165 5.55 35.1498 5.55H18.0998L15.5998 3.05H2.8998C2.73314 3.05 2.59147 3.10833 2.4748 3.225C2.35814 3.34167 2.2998 3.48333 2.2998 3.65ZM2.2998 3.65C2.2998 3.48333 2.2998 3.34167 2.2998 3.225C2.2998 3.10833 2.2998 3.05 2.2998 3.05V5.55C2.2998 5.55 2.2998 5.60833 2.2998 5.725C2.2998 5.84167 2.2998 5.98333 2.2998 6.15V27.1V3.65Z" />
<path d="M23.4767 22.2816H30.5233V21.1921H23.4767V22.2816ZM23.4767 18.3026H30.5233V17.2368H23.4767V18.3026ZM21.3533 26C20.98 26 20.6611 25.8658 20.3967 25.5974C20.1322 25.3289 20 25.0053 20 24.6263V9.37368C20 8.99474 20.1322 8.67105 20.3967 8.40263C20.6611 8.13421 20.98 8 21.3533 8H29.45L34 12.6184V24.6263C34 25.0053 33.8678 25.3289 33.6033 25.5974C33.3389 25.8658 33.02 26 32.6467 26H21.3533ZM28.9367 13.0921V9.06579H21.3533C21.2756 9.06579 21.2056 9.09737 21.1433 9.16053C21.0811 9.22368 21.05 9.29474 21.05 9.37368V24.6263C21.05 24.7053 21.0811 24.7763 21.1433 24.8395C21.2056 24.9026 21.2756 24.9342 21.3533 24.9342H32.6467C32.7244 24.9342 32.7944 24.9026 32.8567 24.8395C32.9189 24.7763 32.95 24.7053 32.95 24.6263V13.0921H28.9367ZM21.05 9.06579V13.0921V24.6263V9.37368C21.05 9.29474 21.05 9.22368 21.05 9.16053C21.05 9.09737 21.05 9.06579 21.05 9.06579Z" />
</svg>
