<svg width="35" height="38" viewBox="0 0 35 38" fill="#000000" xmlns="http://www.w3.org/2000/svg">
<path d="M4.45 37.6C3.21667 37.6 2.16667 37.1667 1.3 36.3C0.433333 35.4333 0 34.3833 0 33.15V27.95H6.25V0L9 2.35L11.8 0L14.6 2.35L17.4 0L20.2 2.35L23 0L25.85 2.35L28.65 0L31.45 2.35L34.2 0V33.15C34.2 34.3833 33.7667 35.4333 32.9 36.3C32.0333 37.1667 30.9833 37.6 29.75 37.6H4.45ZM29.75 35.35C30.3833 35.35 30.9083 35.1417 31.325 34.725C31.7417 34.3083 31.95 33.7833 31.95 33.15V3.85H8.5V27.95H27.6V33.15C27.6 33.7833 27.8 34.3083 28.2 34.725C28.6 35.1417 29.1167 35.35 29.75 35.35ZM11.35 11.3V9H22.7V11.3H11.35ZM11.35 17.8V15.55H22.7V17.8H11.35ZM27.35 11.55C26.9833 11.55 26.6583 11.4083 26.375 11.125C26.0917 10.8417 25.95 10.5167 25.95 10.15C25.95 9.78333 26.0917 9.45833 26.375 9.175C26.6583 8.89167 26.9833 8.75 27.35 8.75C27.7167 8.75 28.0417 8.89167 28.325 9.175C28.6083 9.45833 28.75 9.78333 28.75 10.15C28.75 10.5167 28.6083 10.8417 28.325 11.125C28.0417 11.4083 27.7167 11.55 27.35 11.55ZM27.35 17.9C26.9833 17.9 26.6583 17.7583 26.375 17.475C26.0917 17.1917 25.95 16.8667 25.95 16.5C25.95 16.1333 26.0917 15.8083 26.375 15.525C26.6583 15.2417 26.9833 15.1 27.35 15.1C27.7167 15.1 28.0417 15.2417 28.325 15.525C28.6083 15.8083 28.75 16.1333 28.75 16.5C28.75 16.8667 28.6083 17.1917 28.325 17.475C28.0417 17.7583 27.7167 17.9 27.35 17.9ZM4.4 35.35H25.3V30.25H2.25V33.15C2.25 33.7833 2.45833 34.3083 2.875 34.725C3.29167 35.1417 3.8 35.35 4.4 35.35ZM2.25 35.35C2.25 35.35 2.25 35.1417 2.25 34.725C2.25 34.3083 2.25 33.7833 2.25 33.15V30.25V35.35Z" />
</svg>
