<svg width="28" height="38" viewBox="0 0 28 38" fill="none" xmlns="http://www.w3.org/2000/svg">
<path d="M4.85484 35.4401H23.1452C23.3333 35.4401 23.5027 35.3643 23.6532 35.2126C23.8038 35.0609 23.879 34.8902 23.879 34.7006V9.32934H4.12097V34.7006C4.12097 34.8902 4.19624 35.0609 4.34677 35.2126C4.49731 35.3643 4.66667 35.4401 4.85484 35.4401ZM0 4.89222V2.27545H6.49194L8.75 0H19.25L21.5081 2.27545H28V4.89222H0ZM4.85484 38C3.95161 38 3.18011 37.6776 2.54032 37.0329C1.90054 36.3882 1.58064 35.6108 1.58064 34.7006V6.76946H26.4194V34.7006C26.4194 35.6108 26.0995 36.3882 25.4597 37.0329C24.8199 37.6776 24.0484 38 23.1452 38H4.85484ZM4.12097 35.4401H23.879C23.879 35.4401 23.8038 35.4401 23.6532 35.4401C23.5027 35.4401 23.3333 35.4401 23.1452 35.4401H4.85484C4.66667 35.4401 4.49731 35.4401 4.34677 35.4401C4.19624 35.4401 4.12097 35.4401 4.12097 35.4401Z" fill="black"/>
</svg>
