<svg width="40" height="35" viewBox="0 0 40 35" fill="#000000" xmlns="http://www.w3.org/2000/svg">
<path d="M2.23325 32.75C2.23325 32.75 2.23325 32.6917 2.23325 32.575C2.23325 32.4583 2.23325 32.3 2.23325 32.1V8.8C2.23325 14.3333 2.23325 18.6583 2.23325 21.775C2.23325 24.8917 2.23325 27.225 2.23325 28.775C2.23325 30.325 2.23325 31.3167 2.23325 31.75C2.23325 32.1833 2.23325 32.5167 2.23325 32.75ZM2.87841 35C2.08437 35 1.40612 34.7167 0.843672 34.15C0.281224 33.5833 0 32.9 0 32.1V9.4C0 8.63333 0.281224 7.95833 0.843672 7.375C1.40612 6.79167 2.08437 6.5 2.87841 6.5H12.2581V2.9C12.2581 2.13333 12.5393 1.45833 13.1017 0.875C13.6642 0.291667 14.3424 0 15.1365 0H22.5806C23.3747 0 24.0529 0.291667 24.6154 0.875C25.1778 1.45833 25.4591 2.13333 25.4591 2.9V6.5H34.8387C35.6328 6.5 36.311 6.79167 36.8735 7.375C37.4359 7.95833 37.7171 8.63333 37.7171 9.4V20.35C37.3532 20.0833 36.9893 19.8333 36.6253 19.6C36.2614 19.3667 35.8809 19.15 35.4839 18.95V9.4C35.4839 9.23333 35.426 9.09167 35.3102 8.975C35.1944 8.85833 35.0372 8.8 34.8387 8.8H2.87841C2.6799 8.8 2.52275 8.85833 2.40695 8.975C2.29115 9.09167 2.23325 9.23333 2.23325 9.4V32.1C2.23325 32.3 2.29115 32.4583 2.40695 32.575C2.52275 32.6917 2.6799 32.75 2.87841 32.75H19.1563C19.2556 33.15 19.3714 33.5333 19.5037 33.9C19.6361 34.2667 19.8015 34.6333 20 35H2.87841ZM14.5409 6.5H23.1762V2.9C23.1762 2.7 23.1183 2.54167 23.0025 2.425C22.8867 2.30833 22.7461 2.25 22.5806 2.25H15.1365C14.9711 2.25 14.8304 2.30833 14.7146 2.425C14.5988 2.54167 14.5409 2.7 14.5409 2.9V6.5Z"/>
<path d="M29.5782 31.9C30.6586 31.9 31.5769 31.5167 32.3332 30.75C33.0895 29.9833 33.4677 29.0667 33.4677 28C33.4677 26.9167 33.0854 25.9958 32.3208 25.2375C31.5562 24.4792 30.642 24.1 29.5782 24.1C28.4977 24.1 27.5794 24.4833 26.8231 25.25C26.0668 26.0167 25.6887 26.9333 25.6887 28C25.6887 29.0833 26.071 30.0042 26.8356 30.7625C27.6002 31.5208 28.5144 31.9 29.5782 31.9ZM29.5782 30.775C28.7969 30.775 28.1404 30.5042 27.6085 29.9625C27.0766 29.4208 26.8106 28.7667 26.8106 28C26.8106 27.2167 27.0807 26.5583 27.621 26.025C28.1612 25.4917 28.8136 25.225 29.5782 25.225C30.3594 25.225 31.0159 25.4958 31.5478 26.0375C32.0797 26.5792 32.3457 27.2333 32.3457 28C32.3457 28.7833 32.0756 29.4417 31.5354 29.975C30.9952 30.5083 30.3428 30.775 29.5782 30.775ZM29.5782 35C27.2844 35 25.2066 34.3583 23.345 33.075C21.4834 31.7917 20.0871 30.1 19.1563 28C20.0871 25.9 21.4834 24.2083 23.345 22.925C25.2066 21.6417 27.2844 21 29.5782 21C31.872 21 33.9497 21.6417 35.8113 22.925C37.673 24.2083 39.0692 25.9 40 28C39.0692 30.1 37.673 31.7917 35.8113 33.075C33.9497 34.3583 31.872 35 29.5782 35Z"/>
</svg>
