<svg width="75" height="75" viewBox="0 0 75 75" fill="none" xmlns="http://www.w3.org/2000/svg">
<path d="M37.5001 74.9804C34.69 74.9815 31.8885 74.6682 29.1481 74.0465C23.8669 72.8429 18.9109 70.504 14.6247 67.1922C12.5157 65.5645 10.5849 63.7183 8.8645 61.6844L8.84692 61.6637C3.13452 54.9093 0.00620129 46.346 0.0195739 37.5C0.0195739 32.4402 1.01059 27.5316 2.96489 22.9109C6.77435 13.9265 13.9265 6.77431 22.911 2.96484C27.5317 1.01055 32.4403 0.0195312 37.5001 0.0195312C42.5598 0.0195312 47.4684 1.01055 52.0891 2.96484C61.0736 6.77431 68.2258 13.9265 72.0352 22.9109C73.9883 27.5316 74.9805 32.4422 74.9805 37.5C74.994 46.317 71.886 54.8542 66.2071 61.5988L66.2024 61.6043C59.0567 70.1047 48.5938 74.9804 37.5001 74.9804Z" fill="#7D7D7D"/>
<path d="M37.5 43.3594C45.0508 43.3594 51.1719 37.2383 51.1719 29.6875C51.1719 22.1367 45.0508 16.0156 37.5 16.0156C29.9492 16.0156 23.8281 22.1367 23.8281 29.6875C23.8281 37.2383 29.9492 43.3594 37.5 43.3594Z" fill="#E1E1E1"/>
<path d="M66.218 61.616C59.3391 69.7992 49.0266 75 37.5 75C26.0109 75 15.7285 69.8332 8.84959 61.6961L8.8324 61.6758C13.0035 52.7039 21.2574 46.0156 31.207 43.9934C33.195 44.8652 35.3425 45.3144 37.5132 45.3125C39.684 45.3106 41.8307 44.8577 43.8172 43.9824C53.7687 45.9855 62.0312 52.6563 66.218 61.616Z" fill="#E1E1E1"/>
</svg>
